<?xml version="1.0" encoding="UTF-8" standalone="no"?>
<!-- Created with Inkscape (http://www.inkscape.org/) -->
<svg
   xmlns:dc="http://purl.org/dc/elements/1.1/"
   xmlns:cc="http://web.resource.org/cc/"
   xmlns:rdf="http://www.w3.org/1999/02/22-rdf-syntax-ns#"
   xmlns:svg="http://www.w3.org/2000/svg"
   xmlns="http://www.w3.org/2000/svg"
   xmlns:xlink="http://www.w3.org/1999/xlink"
   xmlns:sodipodi="http://inkscape.sourceforge.net/DTD/sodipodi-0.dtd"
   xmlns:inkscape="http://www.inkscape.org/namespaces/inkscape"
   inkscape:export-ydpi="90.000000"
   inkscape:export-xdpi="90.000000"
   inkscape:export-filename="/Users/ion/Sites/jaws/trunk/jaws/html/gadgets/SimpleSite/images/SimpleSite.png"
   sodipodi:docname="SimpleSite.svg"
   sodipodi:docbase="/Users/ion/Sites/jaws/trunk/jaws/html/gadgets/SimpleSite/images"
   inkscape:version="0.42.2"
   sodipodi:version="0.32"
   id="svg249"
   height="48.000000px"
   width="48.000000px">
  <defs
     id="defs3">
    <linearGradient
       id="linearGradient7648"
       gradientUnits="userSpaceOnUse"
       x1="21.9326"
       y1="24.6274"
       x2="21.9326"
       y2="7.1091"
       style="stroke-dasharray:none;stroke-miterlimit:4.0000000;stroke-width:1.2166667">
      <stop
         offset="0"
         style="stop-color:#8595bc;stop-opacity:1;"
         id="stop7650" />
      <stop
         offset="1"
         style="stop-color:#041a3b;stop-opacity:1;"
         id="stop7652" />
    </linearGradient>
    <linearGradient
       id="linearGradient4542">
      <stop
         style="stop-color:#000000;stop-opacity:0.54166669;"
         offset="0.0000000"
         id="stop4544" />
      <stop
         style="stop-color:#000000;stop-opacity:0;"
         offset="1"
         id="stop4546" />
    </linearGradient>
    <linearGradient
       id="linearGradient15662">
      <stop
         id="stop15664"
         offset="0.0000000"
         style="stop-color:#ffffff;stop-opacity:1.0000000;" />
      <stop
         id="stop15666"
         offset="1.0000000"
         style="stop-color:#f8f8f8;stop-opacity:1.0000000;" />
    </linearGradient>
    <radialGradient
       id="aigrd3"
       cx="20.8921"
       cy="64.5679"
       r="5.257"
       fx="20.8921"
       fy="64.5679"
       gradientUnits="userSpaceOnUse">
      <stop
         offset="0"
         style="stop-color:#F0F0F0"
         id="stop15573" />
      <stop
         offset="1.0000000"
         style="stop-color:#9a9a9a;stop-opacity:1.0000000;"
         id="stop15575" />
    </radialGradient>
    <radialGradient
       id="aigrd2"
       cx="20.8921"
       cy="114.5684"
       r="5.256"
       fx="20.8921"
       fy="114.5684"
       gradientUnits="userSpaceOnUse">
      <stop
         offset="0"
         style="stop-color:#F0F0F0"
         id="stop15566" />
      <stop
         offset="1.0000000"
         style="stop-color:#9a9a9a;stop-opacity:1.0000000;"
         id="stop15568" />
    </radialGradient>
    <linearGradient
       id="linearGradient269">
      <stop
         id="stop270"
         offset="0.0000000"
         style="stop-color:#a3a3a3;stop-opacity:1.0000000;" />
      <stop
         id="stop271"
         offset="1.0000000"
         style="stop-color:#4c4c4c;stop-opacity:1.0000000;" />
    </linearGradient>
    <linearGradient
       id="linearGradient259">
      <stop
         id="stop260"
         offset="0.0000000"
         style="stop-color:#fafafa;stop-opacity:1.0000000;" />
      <stop
         id="stop261"
         offset="1.0000000"
         style="stop-color:#bbbbbb;stop-opacity:1.0000000;" />
    </linearGradient>
    <radialGradient
       inkscape:collect="always"
       xlink:href="#linearGradient4542"
       id="radialGradient4548"
       cx="24.132147"
       cy="39.910385"
       fx="24.132147"
       fy="39.910385"
       r="15.821514"
       gradientTransform="matrix(1.023168,4.154968e-3,-5.398630e-4,0.205976,-0.362899,33.75713)"
       gradientUnits="userSpaceOnUse" />
    <radialGradient
       inkscape:collect="always"
       xlink:href="#linearGradient259"
       id="radialGradient1980"
       gradientUnits="userSpaceOnUse"
       gradientTransform="matrix(1.119173,0.000000,0.000000,1.131744,-1.526019,21.08272)"
       cx="33.966679"
       cy="35.736916"
       fx="33.966679"
       fy="35.736916"
       r="86.708450" />
    <radialGradient
       inkscape:collect="always"
       xlink:href="#linearGradient269"
       id="radialGradient1982"
       gradientUnits="userSpaceOnUse"
       gradientTransform="matrix(1.128238,0.000000,0.000000,1.122650,2.381561,21.78543)"
       cx="8.8244190"
       cy="3.7561285"
       fx="8.8244190"
       fy="3.7561285"
       r="37.751713" />
    <radialGradient
       inkscape:collect="always"
       xlink:href="#linearGradient15662"
       id="radialGradient1984"
       gradientUnits="userSpaceOnUse"
       gradientTransform="matrix(1.128238,0.000000,0.000000,1.122650,2.381561,21.78543)"
       cx="8.1435566"
       cy="7.2678967"
       fx="8.1435566"
       fy="7.2678967"
       r="38.158695" />
    <linearGradient
       inkscape:collect="always"
       xlink:href="#linearGradient7648"
       id="linearGradient1986"
       gradientUnits="userSpaceOnUse"
       gradientTransform="matrix(2.497731,0.000000,0.000000,-1.725811,-52.22925,102.0697)"
       x1="21.9326"
       y1="24.627399"
       x2="21.9326"
       y2="7.1090999" />
    <radialGradient
       inkscape:collect="always"
       xlink:href="#linearGradient259"
       id="radialGradient2044"
       gradientUnits="userSpaceOnUse"
       gradientTransform="matrix(1.119173,0.000000,0.000000,1.131744,-1.526023,-0.639180)"
       cx="33.966679"
       cy="35.736916"
       fx="33.966679"
       fy="35.736916"
       r="86.708450" />
    <radialGradient
       inkscape:collect="always"
       xlink:href="#linearGradient269"
       id="radialGradient2046"
       gradientUnits="userSpaceOnUse"
       gradientTransform="matrix(1.128238,0.000000,0.000000,1.122650,2.381557,6.353412e-2)"
       cx="8.8244190"
       cy="3.7561285"
       fx="8.8244190"
       fy="3.7561285"
       r="37.751713" />
    <radialGradient
       inkscape:collect="always"
       xlink:href="#linearGradient15662"
       id="radialGradient2048"
       gradientUnits="userSpaceOnUse"
       gradientTransform="matrix(1.128238,0.000000,0.000000,1.122650,2.381557,6.353412e-2)"
       cx="8.1435566"
       cy="7.2678967"
       fx="8.1435566"
       fy="7.2678967"
       r="38.158695" />
    <linearGradient
       inkscape:collect="always"
       xlink:href="#linearGradient7648"
       id="linearGradient2050"
       gradientUnits="userSpaceOnUse"
       gradientTransform="matrix(2.497731,0.000000,0.000000,-1.725811,-52.22925,30.76007)"
       x1="21.9326"
       y1="24.627399"
       x2="21.9326"
       y2="7.1090999" />
    <radialGradient
       inkscape:collect="always"
       xlink:href="#linearGradient259"
       id="radialGradient2274"
       gradientUnits="userSpaceOnUse"
       gradientTransform="matrix(1.119173,0.000000,0.000000,1.131744,-12.51561,10.61316)"
       cx="33.966679"
       cy="35.736916"
       fx="33.966679"
       fy="35.736916"
       r="86.708450" />
    <radialGradient
       inkscape:collect="always"
       xlink:href="#linearGradient269"
       id="radialGradient2276"
       gradientUnits="userSpaceOnUse"
       gradientTransform="matrix(1.128238,0.000000,0.000000,1.122650,-8.608034,11.31587)"
       cx="8.8244190"
       cy="3.7561285"
       fx="8.8244190"
       fy="3.7561285"
       r="37.751713" />
    <radialGradient
       inkscape:collect="always"
       xlink:href="#linearGradient15662"
       id="radialGradient2278"
       gradientUnits="userSpaceOnUse"
       gradientTransform="matrix(1.128238,0.000000,0.000000,1.122650,-8.608034,11.31587)"
       cx="8.1435566"
       cy="7.2678967"
       fx="8.1435566"
       fy="7.2678967"
       r="38.158695" />
    <linearGradient
       inkscape:collect="always"
       xlink:href="#linearGradient7648"
       id="linearGradient2280"
       gradientUnits="userSpaceOnUse"
       gradientTransform="matrix(2.497731,0.000000,0.000000,-1.725811,-87.42793,67.69985)"
       x1="21.9326"
       y1="24.627399"
       x2="21.9326"
       y2="7.1090999" />
  </defs>
  <sodipodi:namedview
     inkscape:window-y="22"
     inkscape:window-x="29"
     inkscape:window-height="791"
     inkscape:window-width="1018"
     inkscape:document-units="px"
     inkscape:grid-bbox="true"
     showgrid="false"
     inkscape:current-layer="layer6"
     inkscape:cy="3.6974347"
     inkscape:cx="25.075062"
     inkscape:zoom="15.212417"
     inkscape:pageshadow="2"
     inkscape:pageopacity="0.0"
     borderopacity="0.25490196"
     bordercolor="#666666"
     pagecolor="#ffffff"
     id="base"
     inkscape:showpageshadow="false"
     fill="#729fcf"
     showguides="true"
     inkscape:guide-bbox="true">
    <sodipodi:guide
       orientation="vertical"
       position="37.341853"
       id="guide2116" />
  </sodipodi:namedview>
  <metadata
     id="metadata4">
    <rdf:RDF>
      <cc:Work
         rdf:about="">
        <dc:format>image/svg+xml</dc:format>
        <dc:type
           rdf:resource="http://purl.org/dc/dcmitype/StillImage" />
        <dc:title>Office Document</dc:title>
        <dc:subject>
          <rdf:Bag>
            <rdf:li>rich</rdf:li>
            <rdf:li>text</rdf:li>
            <rdf:li>document</rdf:li>
            <rdf:li>pdf</rdf:li>
            <rdf:li>openoffice</rdf:li>
            <rdf:li>word</rdf:li>
            <rdf:li>rtf</rdf:li>
          </rdf:Bag>
        </dc:subject>
        <cc:license
           rdf:resource="http://creativecommons.org/licenses/by-sa/2.0/" />
        <dc:creator>
          <cc:Agent>
            <dc:title>Jakub Steiner</dc:title>
          </cc:Agent>
        </dc:creator>
        <dc:source>http://jimmac.musichall.cz</dc:source>
      </cc:Work>
      <cc:License
         rdf:about="http://creativecommons.org/licenses/by/2.0/">
        <cc:permits
           rdf:resource="http://web.resource.org/cc/Reproduction" />
        <cc:permits
           rdf:resource="http://web.resource.org/cc/Distribution" />
        <cc:requires
           rdf:resource="http://web.resource.org/cc/Notice" />
        <cc:requires
           rdf:resource="http://web.resource.org/cc/Attribution" />
        <cc:permits
           rdf:resource="http://web.resource.org/cc/DerivativeWorks" />
        <cc:requires
           rdf:resource="http://web.resource.org/cc/ShareAlike" />
      </cc:License>
    </rdf:RDF>
  </metadata>
  <g
     inkscape:groupmode="layer"
     id="layer6"
     inkscape:label="Shadow">
    <path
       sodipodi:type="arc"
       style="opacity:0.78362572;color:#000000;fill:url(#radialGradient4548);fill-opacity:1.0000000;fill-rule:evenodd;stroke:none;stroke-width:2.0000000;stroke-linecap:round;stroke-linejoin:round;marker:none;marker-start:none;marker-mid:none;marker-end:none;stroke-miterlimit:4.0000000;stroke-dasharray:none;stroke-dashoffset:0.0000000;stroke-opacity:1.0000000;visibility:visible;display:inline;overflow:visible"
       id="path3667"
       sodipodi:cx="24.306795"
       sodipodi:cy="42.077980"
       sodipodi:rx="15.821514"
       sodipodi:ry="4.5078058"
       d="M 40.128309 42.077980 A 15.821514 4.5078058 0 1 1  8.4852810,42.077980 A 15.821514 4.5078058 0 1 1  40.128309 42.077980 z"
       transform="matrix(1.244743,0.000000,0.000000,1.000000,-6.063934,8.326762e-2)" />
  </g>
  <g
     style="display:inline"
     inkscape:groupmode="layer"
     inkscape:label="Base"
     id="layer1" />
  <g
     inkscape:groupmode="layer"
     id="layer5"
     inkscape:label="Text"
     style="display:inline">
    <rect
       ry="0.065390892"
       rx="0.13778633"
       y="21.744509"
       x="3.3768215"
       height="0.98382831"
       width="27.521118"
       id="rect2290"
       style="color:#000000;fill:#9b9b9b;fill-opacity:0.85430461;fill-rule:nonzero;stroke:none;stroke-width:1.0000000;stroke-linecap:round;stroke-linejoin:round;marker:none;marker-start:none;marker-mid:none;marker-end:none;stroke-miterlimit:4.0000000;stroke-dashoffset:0.0000000;stroke-opacity:0.081871338;visibility:visible;display:block;overflow:visible" />
    <g
       style="display:inline"
       id="g1988"
       transform="matrix(0.858217,0.000000,0.000000,0.919936,1.309650,0.588010)">
      <rect
         rx="1.3388790"
         ry="1.2490531"
         y="24.253918"
         x="23.842323"
         height="20.561783"
         width="17.879887"
         id="rect1990"
         style="color:#000000;fill:url(#radialGradient2044);fill-opacity:1.0000000;fill-rule:nonzero;stroke:url(#radialGradient2046);stroke-width:0.50755745;stroke-linecap:round;stroke-linejoin:round;marker:none;marker-start:none;marker-mid:none;marker-end:none;stroke-miterlimit:4.0000000;stroke-dashoffset:0.0000000;stroke-opacity:1.0000000;visibility:visible;display:block;overflow:visible" />
      <rect
         rx="0.17367238"
         ry="0.16202062"
         y="24.724993"
         x="24.387053"
         height="19.569830"
         width="16.803703"
         id="rect1992"
         style="color:#000000;fill:none;fill-opacity:1.0000000;fill-rule:nonzero;stroke:url(#radialGradient2048);stroke-width:0.50755745;stroke-linecap:round;stroke-linejoin:round;marker:none;marker-start:none;marker-mid:none;marker-end:none;stroke-miterlimit:4.0000000;stroke-dashoffset:0.0000000;stroke-opacity:1.0000000;visibility:visible;display:block;overflow:visible" />
      <rect
         style="color:#000000;fill:#9b9b9b;fill-opacity:0.54970759;fill-rule:nonzero;stroke:none;stroke-width:1.0000000;stroke-linecap:round;stroke-linejoin:round;marker:none;marker-start:none;marker-mid:none;marker-end:none;stroke-miterlimit:4.0000000;stroke-dashoffset:0.0000000;stroke-opacity:0.081871338;visibility:visible;display:block;overflow:visible"
         id="rect1994"
         width="10.253701"
         height="0.50248128"
         x="27.634363"
         y="39.428757"
         rx="0.16054952"
         ry="0.071082003" />
      <rect
         style="color:#000000;fill:#9b9b9b;fill-opacity:0.54970759;fill-rule:nonzero;stroke:none;stroke-width:1.0000000;stroke-linecap:round;stroke-linejoin:round;marker:none;marker-start:none;marker-mid:none;marker-end:none;stroke-miterlimit:4.0000000;stroke-dashoffset:0.0000000;stroke-opacity:0.081871338;visibility:visible;display:block;overflow:visible"
         id="rect1996"
         width="10.253701"
         height="0.50248128"
         x="27.634363"
         y="40.433720"
         rx="0.16054952"
         ry="0.071082003" />
      <rect
         style="color:#000000;fill:#9b9b9b;fill-opacity:0.54970759;fill-rule:nonzero;stroke:none;stroke-width:1.0000000;stroke-linecap:round;stroke-linejoin:round;marker:none;marker-start:none;marker-mid:none;marker-end:none;stroke-miterlimit:4.0000000;stroke-dashoffset:0.0000000;stroke-opacity:0.081871338;visibility:visible;display:block;overflow:visible"
         id="rect1998"
         width="10.253701"
         height="0.50248128"
         x="27.634363"
         y="41.438683"
         rx="0.16054952"
         ry="0.071082003" />
      <rect
         style="color:#000000;fill:#9b9b9b;fill-opacity:0.54970759;fill-rule:nonzero;stroke:none;stroke-width:1.0000000;stroke-linecap:round;stroke-linejoin:round;marker:none;marker-start:none;marker-mid:none;marker-end:none;stroke-miterlimit:4.0000000;stroke-dashoffset:0.0000000;stroke-opacity:0.081871338;visibility:visible;display:block;overflow:visible"
         id="rect2000"
         width="7.1775966"
         height="0.50248128"
         x="27.634363"
         y="42.443645"
         rx="0.11238474"
         ry="0.071082003" />
      <g
         transform="matrix(0.512685,0.000000,0.000000,0.502481,19.43141,23.85184)"
         style="opacity:0.66477275"
         id="g2002">
        <g
           id="g2004"
           transform="matrix(0.608982,0.000000,0.000000,0.606219,12.82330,10.55720)">
          <path
             id="path2006"
             d="M 5.5126950,30.000000 L 39.643234,30.000000 L 39.643234,19.627375 L 5.5126950,19.627375 L 5.5126950,30.000000 z "
             style="fill:url(#linearGradient2050);fill-opacity:1.0000000;fill-rule:nonzero;stroke:none;stroke-width:1.2166667;stroke-miterlimit:4.0000000" />
          <path
             style="fill:#729fcf;fill-opacity:1.0000000;fill-rule:nonzero;stroke:none;stroke-width:1.2166667;stroke-miterlimit:4.0000000"
             d="M 5.5126950,5.6791358 L 39.643234,5.6791358 L 39.643234,19.627375 L 5.5126950,19.627375 L 5.5126950,5.6791358 z "
             id="path2008" />
          <g
             id="g2010"
             style="fill-rule:nonzero;stroke:#000000;stroke-width:2.0024171;stroke-miterlimit:4.0000000"
             transform="matrix(1.189217,0.000000,0.000000,1.189217,-3.525355,-6.535408)">
            <g
               id="g2012">
              <path
                 style="opacity:0.049999896;fill:#e8f52f;stroke:none"
                 d="M 18.400000,15.400000 C 18.400000,17.600000 16.600000,19.500000 14.300000,19.500000 C 12.100000,19.500000 10.200000,17.700000 10.200000,15.400000 C 10.200000,13.200000 12.000000,11.300000 14.300000,11.300000 C 16.500000,11.300000 18.400000,13.100000 18.400000,15.400000 z "
                 id="path2014" />
              <path
                 style="opacity:0.20829989;fill:#ecf751;stroke:none"
                 d="M 18.000000,15.400000 C 18.000000,17.400000 16.400000,19.100000 14.300000,19.100000 C 12.300000,19.100000 10.600000,17.500000 10.600000,15.400000 C 10.600000,13.400000 12.200000,11.700000 14.300000,11.700000 C 16.300000,11.700000 18.000000,13.300000 18.000000,15.400000 L 18.000000,15.400000 z "
                 id="path2016" />
              <path
                 style="opacity:0.36669990;fill:#f0f972;stroke:none"
                 d="M 17.600000,15.400000 C 17.600000,17.200000 16.100000,18.700000 14.300000,18.700000 C 12.500000,18.700000 11.000000,17.200000 11.000000,15.400000 C 11.000000,13.600000 12.500000,12.100000 14.300000,12.100000 C 16.100000,12.100000 17.600000,13.600000 17.600000,15.400000 L 17.600000,15.400000 z "
                 id="path2018" />
              <path
                 style="opacity:0.52499998;fill:#f4fa95;stroke:none"
                 d="M 17.200000,15.400000 C 17.200000,17.000000 15.900000,18.300000 14.300000,18.300000 C 12.700000,18.300000 11.400000,17.000000 11.400000,15.400000 C 11.400000,13.800000 12.700000,12.500000 14.300000,12.500000 C 15.900000,12.500000 17.200000,13.800000 17.200000,15.400000 z "
                 id="path2020" />
              <path
                 style="opacity:0.68330002;fill:#f7fcb7;stroke:none"
                 d="M 16.800000,15.400000 C 16.800000,16.800000 15.700000,17.900000 14.300000,17.900000 C 12.900000,17.900000 11.800000,16.800000 11.800000,15.400000 C 11.800000,14.000000 12.900000,12.900000 14.300000,12.900000 C 15.700000,12.900000 16.800000,14.000000 16.800000,15.400000 L 16.800000,15.400000 z "
                 id="path2022" />
              <path
                 style="opacity:0.84170002;fill:#fbfddb;stroke:none"
                 d="M 16.400000,15.400000 C 16.400000,16.600000 15.400000,17.500000 14.300000,17.500000 C 13.200000,17.500000 12.200000,16.500000 12.200000,15.400000 C 12.200000,14.300000 13.200000,13.300000 14.300000,13.300000 C 15.400000,13.300000 16.400000,14.300000 16.400000,15.400000 z "
                 id="path2024" />
              <path
                 style="fill:#ffffff;stroke:none"
                 d="M 16.000000,15.400000 C 16.000000,16.400000 15.200000,17.200000 14.200000,17.200000 C 13.200000,17.200000 12.400000,16.400000 12.400000,15.400000 C 12.400000,14.400000 13.200000,13.600000 14.200000,13.600000 C 15.200000,13.600000 16.000000,14.400000 16.000000,15.400000 L 16.000000,15.400000 z "
                 id="path2026" />
            </g>
          </g>
          <path
             style="opacity:0.29999998;fill-rule:nonzero;stroke:none;stroke-width:1.2166667;stroke-miterlimit:4.0000000"
             d="M 25.015859,21.649044 L 33.697148,21.649044 L 35.362052,22.124732 L 32.507931,22.124732 C 32.507931,22.124732 35.362052,22.362574 36.789115,24.146401 C 38.216174,25.811305 35.124210,27.832976 35.124210,27.832976 C 35.124210,27.832976 35.124210,27.832976 35.124210,27.832976 C 35.005288,27.476210 34.291756,24.622087 32.864696,23.432870 C 31.794399,22.481496 30.605182,22.243652 30.605182,22.243652 L 25.015859,22.243652 L 25.015859,21.767966 L 25.015859,21.649044 z "
             id="path2028" />
          <path
             style="opacity:0.29999998;fill-rule:nonzero;stroke:none;stroke-width:1.2166667;stroke-miterlimit:4.0000000"
             d="M 30.724106,22.362574 L 25.729391,22.362574 L 35.005288,27.595131 L 30.724106,22.362574 L 30.724106,22.362574 z "
             id="path2030" />
          <path
             style="fill:#515151;fill-rule:nonzero;stroke:none;stroke-width:1.2166667;stroke-miterlimit:4.0000000"
             d="M 25.015859,21.767966 L 33.697148,21.767966 L 35.005288,20.935513 L 32.151167,20.935513 C 32.151167,20.935513 34.767443,20.459827 35.124210,17.486782 C 35.480973,14.513739 31.080869,11.183931 31.080869,11.183931 C 31.080869,11.183931 31.080869,11.183931 31.080869,11.302853 C 31.199790,12.016383 32.389007,17.011096 31.556557,18.913846 C 31.199790,20.578747 30.129495,20.935513 30.129495,20.935513 L 24.659094,20.935513 L 24.896938,21.767966 L 25.015859,21.767966 z "
             id="path2032" />
          <path
             style="fill:#515151;fill-rule:nonzero;stroke:none;stroke-width:1.2166667;stroke-miterlimit:4.0000000"
             d="M 30.248418,20.459827 L 25.253704,20.459827 L 31.199790,11.421773 L 30.248418,20.459827 z "
             id="path2034" />
        </g>
        <rect
           style="opacity:1.0000000;color:#000000;fill:none;fill-opacity:1.0000000;fill-rule:nonzero;stroke:#9e9e9e;stroke-width:0.99999863;stroke-linecap:butt;stroke-linejoin:miter;marker:none;marker-start:none;marker-mid:none;marker-end:none;stroke-miterlimit:4.0000000;stroke-dasharray:none;stroke-dashoffset:0.0000000;stroke-opacity:1.0000000;visibility:visible;display:inline;overflow:visible"
           id="rect2036"
           width="19.995502"
           height="13.997463"
           x="16.508501"
           y="14.485752" />
      </g>
      <rect
         ry="0.071082003"
         rx="0.16054952"
         y="28.374168"
         x="27.634363"
         height="0.50248128"
         width="10.253701"
         id="rect2038"
         style="color:#000000;fill:#9b9b9b;fill-opacity:0.54970759;fill-rule:nonzero;stroke:none;stroke-width:1.0000000;stroke-linecap:round;stroke-linejoin:round;marker:none;marker-start:none;marker-mid:none;marker-end:none;stroke-miterlimit:4.0000000;stroke-dashoffset:0.0000000;stroke-opacity:0.081871338;visibility:visible;display:block;overflow:visible" />
      <rect
         ry="0.071082003"
         rx="0.11238474"
         y="29.379131"
         x="27.634363"
         height="0.50248128"
         width="7.1775966"
         id="rect2040"
         style="color:#000000;fill:#9b9b9b;fill-opacity:0.54970759;fill-rule:nonzero;stroke:none;stroke-width:1.0000000;stroke-linecap:round;stroke-linejoin:round;marker:none;marker-start:none;marker-mid:none;marker-end:none;stroke-miterlimit:4.0000000;stroke-dashoffset:0.0000000;stroke-opacity:0.081871338;visibility:visible;display:block;overflow:visible" />
      <rect
         ry="0.071082003"
         rx="0.16054952"
         y="26.374630"
         x="25.598036"
         height="1.0694530"
         width="14.556182"
         id="rect2042"
         style="color:#000000;fill:#9b9b9b;fill-opacity:0.85430461;fill-rule:nonzero;stroke:none;stroke-width:1.0000000;stroke-linecap:round;stroke-linejoin:round;marker:none;marker-start:none;marker-mid:none;marker-end:none;stroke-miterlimit:4.0000000;stroke-dashoffset:0.0000000;stroke-opacity:0.081871338;visibility:visible;display:block;overflow:visible" />
    </g>
    <g
       style="display:inline"
       id="g2182"
       transform="matrix(0.858217,0.000000,0.000000,0.919936,10.74110,-9.763424)">
      <rect
         rx="1.3388790"
         ry="1.2490531"
         y="24.253918"
         x="23.842323"
         height="20.561783"
         width="17.879887"
         id="rect2184"
         style="color:#000000;fill:url(#radialGradient2274);fill-opacity:1.0000000;fill-rule:nonzero;stroke:url(#radialGradient2276);stroke-width:0.50755745;stroke-linecap:round;stroke-linejoin:round;marker:none;marker-start:none;marker-mid:none;marker-end:none;stroke-miterlimit:4.0000000;stroke-dashoffset:0.0000000;stroke-opacity:1.0000000;visibility:visible;display:block;overflow:visible" />
      <rect
         rx="0.17367238"
         ry="0.16202062"
         y="24.724993"
         x="24.387053"
         height="19.569830"
         width="16.803703"
         id="rect2186"
         style="color:#000000;fill:none;fill-opacity:1.0000000;fill-rule:nonzero;stroke:url(#radialGradient2278);stroke-width:0.50755745;stroke-linecap:round;stroke-linejoin:round;marker:none;marker-start:none;marker-mid:none;marker-end:none;stroke-miterlimit:4.0000000;stroke-dashoffset:0.0000000;stroke-opacity:1.0000000;visibility:visible;display:block;overflow:visible" />
      <rect
         style="color:#000000;fill:#9b9b9b;fill-opacity:0.54970759;fill-rule:nonzero;stroke:none;stroke-width:1.0000000;stroke-linecap:round;stroke-linejoin:round;marker:none;marker-start:none;marker-mid:none;marker-end:none;stroke-miterlimit:4.0000000;stroke-dashoffset:0.0000000;stroke-opacity:0.081871338;visibility:visible;display:block;overflow:visible"
         id="rect2188"
         width="10.253701"
         height="0.50248128"
         x="27.634363"
         y="39.428757"
         rx="0.16054952"
         ry="0.071082003" />
      <rect
         style="color:#000000;fill:#9b9b9b;fill-opacity:0.54970759;fill-rule:nonzero;stroke:none;stroke-width:1.0000000;stroke-linecap:round;stroke-linejoin:round;marker:none;marker-start:none;marker-mid:none;marker-end:none;stroke-miterlimit:4.0000000;stroke-dashoffset:0.0000000;stroke-opacity:0.081871338;visibility:visible;display:block;overflow:visible"
         id="rect2190"
         width="10.253701"
         height="0.50248128"
         x="27.634363"
         y="40.433720"
         rx="0.16054952"
         ry="0.071082003" />
      <rect
         style="color:#000000;fill:#9b9b9b;fill-opacity:0.54970759;fill-rule:nonzero;stroke:none;stroke-width:1.0000000;stroke-linecap:round;stroke-linejoin:round;marker:none;marker-start:none;marker-mid:none;marker-end:none;stroke-miterlimit:4.0000000;stroke-dashoffset:0.0000000;stroke-opacity:0.081871338;visibility:visible;display:block;overflow:visible"
         id="rect2192"
         width="10.253701"
         height="0.50248128"
         x="27.634363"
         y="41.438683"
         rx="0.16054952"
         ry="0.071082003" />
      <rect
         style="color:#000000;fill:#9b9b9b;fill-opacity:0.54970759;fill-rule:nonzero;stroke:none;stroke-width:1.0000000;stroke-linecap:round;stroke-linejoin:round;marker:none;marker-start:none;marker-mid:none;marker-end:none;stroke-miterlimit:4.0000000;stroke-dashoffset:0.0000000;stroke-opacity:0.081871338;visibility:visible;display:block;overflow:visible"
         id="rect2194"
         width="7.1775966"
         height="0.50248128"
         x="27.634363"
         y="42.443645"
         rx="0.11238474"
         ry="0.071082003" />
      <g
         transform="matrix(0.512685,0.000000,0.000000,0.502481,19.43141,23.85184)"
         style="opacity:0.66477275"
         id="g2196">
        <g
           id="g2198"
           transform="matrix(0.608982,0.000000,0.000000,0.606219,12.82330,10.55720)">
          <path
             id="path2200"
             d="M 5.5126950,30.000000 L 39.643234,30.000000 L 39.643234,19.627375 L 5.5126950,19.627375 L 5.5126950,30.000000 z "
             style="fill:url(#linearGradient2280);fill-opacity:1.0000000;fill-rule:nonzero;stroke:none;stroke-width:1.2166667;stroke-miterlimit:4.0000000" />
          <path
             style="fill:#729fcf;fill-opacity:1.0000000;fill-rule:nonzero;stroke:none;stroke-width:1.2166667;stroke-miterlimit:4.0000000"
             d="M 5.5126950,5.6791358 L 39.643234,5.6791358 L 39.643234,19.627375 L 5.5126950,19.627375 L 5.5126950,5.6791358 z "
             id="path2202" />
          <g
             id="g2204"
             style="fill-rule:nonzero;stroke:#000000;stroke-width:2.0024171;stroke-miterlimit:4.0000000"
             transform="matrix(1.189217,0.000000,0.000000,1.189217,-3.525355,-6.535408)">
            <g
               id="g2206">
              <path
                 style="opacity:0.049999896;fill:#e8f52f;stroke:none"
                 d="M 18.400000,15.400000 C 18.400000,17.600000 16.600000,19.500000 14.300000,19.500000 C 12.100000,19.500000 10.200000,17.700000 10.200000,15.400000 C 10.200000,13.200000 12.000000,11.300000 14.300000,11.300000 C 16.500000,11.300000 18.400000,13.100000 18.400000,15.400000 z "
                 id="path2208" />
              <path
                 style="opacity:0.20829989;fill:#ecf751;stroke:none"
                 d="M 18.000000,15.400000 C 18.000000,17.400000 16.400000,19.100000 14.300000,19.100000 C 12.300000,19.100000 10.600000,17.500000 10.600000,15.400000 C 10.600000,13.400000 12.200000,11.700000 14.300000,11.700000 C 16.300000,11.700000 18.000000,13.300000 18.000000,15.400000 L 18.000000,15.400000 z "
                 id="path2210" />
              <path
                 style="opacity:0.36669990;fill:#f0f972;stroke:none"
                 d="M 17.600000,15.400000 C 17.600000,17.200000 16.100000,18.700000 14.300000,18.700000 C 12.500000,18.700000 11.000000,17.200000 11.000000,15.400000 C 11.000000,13.600000 12.500000,12.100000 14.300000,12.100000 C 16.100000,12.100000 17.600000,13.600000 17.600000,15.400000 L 17.600000,15.400000 z "
                 id="path2212" />
              <path
                 style="opacity:0.52499998;fill:#f4fa95;stroke:none"
                 d="M 17.200000,15.400000 C 17.200000,17.000000 15.900000,18.300000 14.300000,18.300000 C 12.700000,18.300000 11.400000,17.000000 11.400000,15.400000 C 11.400000,13.800000 12.700000,12.500000 14.300000,12.500000 C 15.900000,12.500000 17.200000,13.800000 17.200000,15.400000 z "
                 id="path2214" />
              <path
                 style="opacity:0.68330002;fill:#f7fcb7;stroke:none"
                 d="M 16.800000,15.400000 C 16.800000,16.800000 15.700000,17.900000 14.300000,17.900000 C 12.900000,17.900000 11.800000,16.800000 11.800000,15.400000 C 11.800000,14.000000 12.900000,12.900000 14.300000,12.900000 C 15.700000,12.900000 16.800000,14.000000 16.800000,15.400000 L 16.800000,15.400000 z "
                 id="path2216" />
              <path
                 style="opacity:0.84170002;fill:#fbfddb;stroke:none"
                 d="M 16.400000,15.400000 C 16.400000,16.600000 15.400000,17.500000 14.300000,17.500000 C 13.200000,17.500000 12.200000,16.500000 12.200000,15.400000 C 12.200000,14.300000 13.200000,13.300000 14.300000,13.300000 C 15.400000,13.300000 16.400000,14.300000 16.400000,15.400000 z "
                 id="path2218" />
              <path
                 style="fill:#ffffff;stroke:none"
                 d="M 16.000000,15.400000 C 16.000000,16.400000 15.200000,17.200000 14.200000,17.200000 C 13.200000,17.200000 12.400000,16.400000 12.400000,15.400000 C 12.400000,14.400000 13.200000,13.600000 14.200000,13.600000 C 15.200000,13.600000 16.000000,14.400000 16.000000,15.400000 L 16.000000,15.400000 z "
                 id="path2220" />
            </g>
          </g>
          <path
             style="opacity:0.29999998;fill-rule:nonzero;stroke:none;stroke-width:1.2166667;stroke-miterlimit:4.0000000"
             d="M 25.015859,21.649044 L 33.697148,21.649044 L 35.362052,22.124732 L 32.507931,22.124732 C 32.507931,22.124732 35.362052,22.362574 36.789115,24.146401 C 38.216174,25.811305 35.124210,27.832976 35.124210,27.832976 C 35.124210,27.832976 35.124210,27.832976 35.124210,27.832976 C 35.005288,27.476210 34.291756,24.622087 32.864696,23.432870 C 31.794399,22.481496 30.605182,22.243652 30.605182,22.243652 L 25.015859,22.243652 L 25.015859,21.767966 L 25.015859,21.649044 z "
             id="path2222" />
          <path
             style="opacity:0.29999998;fill-rule:nonzero;stroke:none;stroke-width:1.2166667;stroke-miterlimit:4.0000000"
             d="M 30.724106,22.362574 L 25.729391,22.362574 L 35.005288,27.595131 L 30.724106,22.362574 L 30.724106,22.362574 z "
             id="path2224" />
          <path
             style="fill:#515151;fill-rule:nonzero;stroke:none;stroke-width:1.2166667;stroke-miterlimit:4.0000000"
             d="M 25.015859,21.767966 L 33.697148,21.767966 L 35.005288,20.935513 L 32.151167,20.935513 C 32.151167,20.935513 34.767443,20.459827 35.124210,17.486782 C 35.480973,14.513739 31.080869,11.183931 31.080869,11.183931 C 31.080869,11.183931 31.080869,11.183931 31.080869,11.302853 C 31.199790,12.016383 32.389007,17.011096 31.556557,18.913846 C 31.199790,20.578747 30.129495,20.935513 30.129495,20.935513 L 24.659094,20.935513 L 24.896938,21.767966 L 25.015859,21.767966 z "
             id="path2226" />
          <path
             style="fill:#515151;fill-rule:nonzero;stroke:none;stroke-width:1.2166667;stroke-miterlimit:4.0000000"
             d="M 30.248418,20.459827 L 25.253704,20.459827 L 31.199790,11.421773 L 30.248418,20.459827 z "
             id="path2228" />
        </g>
        <rect
           style="opacity:1.0000000;color:#000000;fill:none;fill-opacity:1.0000000;fill-rule:nonzero;stroke:#9e9e9e;stroke-width:0.99999863;stroke-linecap:butt;stroke-linejoin:miter;marker:none;marker-start:none;marker-mid:none;marker-end:none;stroke-miterlimit:4.0000000;stroke-dasharray:none;stroke-dashoffset:0.0000000;stroke-opacity:1.0000000;visibility:visible;display:inline;overflow:visible"
           id="rect2230"
           width="19.995502"
           height="13.997463"
           x="16.508501"
           y="14.485752" />
      </g>
      <rect
         ry="0.071082003"
         rx="0.16054952"
         y="28.374168"
         x="27.634363"
         height="0.50248128"
         width="10.253701"
         id="rect2232"
         style="color:#000000;fill:#9b9b9b;fill-opacity:0.54970759;fill-rule:nonzero;stroke:none;stroke-width:1.0000000;stroke-linecap:round;stroke-linejoin:round;marker:none;marker-start:none;marker-mid:none;marker-end:none;stroke-miterlimit:4.0000000;stroke-dashoffset:0.0000000;stroke-opacity:0.081871338;visibility:visible;display:block;overflow:visible" />
      <rect
         ry="0.071082003"
         rx="0.11238474"
         y="29.379131"
         x="27.634363"
         height="0.50248128"
         width="7.1775966"
         id="rect2234"
         style="color:#000000;fill:#9b9b9b;fill-opacity:0.54970759;fill-rule:nonzero;stroke:none;stroke-width:1.0000000;stroke-linecap:round;stroke-linejoin:round;marker:none;marker-start:none;marker-mid:none;marker-end:none;stroke-miterlimit:4.0000000;stroke-dashoffset:0.0000000;stroke-opacity:0.081871338;visibility:visible;display:block;overflow:visible" />
      <rect
         ry="0.071082003"
         rx="0.16054952"
         y="26.374630"
         x="25.598036"
         height="1.0694530"
         width="14.556182"
         id="rect2236"
         style="color:#000000;fill:#9b9b9b;fill-opacity:0.85430461;fill-rule:nonzero;stroke:none;stroke-width:1.0000000;stroke-linecap:round;stroke-linejoin:round;marker:none;marker-start:none;marker-mid:none;marker-end:none;stroke-miterlimit:4.0000000;stroke-dashoffset:0.0000000;stroke-opacity:0.081871338;visibility:visible;display:block;overflow:visible" />
    </g>
    <g
       id="g1815"
       transform="matrix(0.858217,0.000000,0.000000,0.919936,1.309650,-19.39474)">
      <rect
         rx="1.3388790"
         ry="1.2490531"
         y="24.253918"
         x="23.842323"
         height="20.561783"
         width="17.879887"
         id="rect15391"
         style="color:#000000;fill:url(#radialGradient1980);fill-opacity:1.0000000;fill-rule:nonzero;stroke:url(#radialGradient1982);stroke-width:0.50755745;stroke-linecap:round;stroke-linejoin:round;marker:none;marker-start:none;marker-mid:none;marker-end:none;stroke-miterlimit:4.0000000;stroke-dashoffset:0.0000000;stroke-opacity:1.0000000;visibility:visible;display:block;overflow:visible" />
      <rect
         rx="0.17367238"
         ry="0.16202062"
         y="24.724993"
         x="24.387053"
         height="19.569830"
         width="16.803703"
         id="rect15660"
         style="color:#000000;fill:none;fill-opacity:1.0000000;fill-rule:nonzero;stroke:url(#radialGradient1984);stroke-width:0.50755745;stroke-linecap:round;stroke-linejoin:round;marker:none;marker-start:none;marker-mid:none;marker-end:none;stroke-miterlimit:4.0000000;stroke-dashoffset:0.0000000;stroke-opacity:1.0000000;visibility:visible;display:block;overflow:visible" />
      <rect
         style="color:#000000;fill:#9b9b9b;fill-opacity:0.54970759;fill-rule:nonzero;stroke:none;stroke-width:1.0000000;stroke-linecap:round;stroke-linejoin:round;marker:none;marker-start:none;marker-mid:none;marker-end:none;stroke-miterlimit:4.0000000;stroke-dashoffset:0.0000000;stroke-opacity:0.081871338;visibility:visible;display:block;overflow:visible"
         id="rect15738"
         width="10.253701"
         height="0.50248128"
         x="27.634363"
         y="39.428757"
         rx="0.16054952"
         ry="0.071082003" />
      <rect
         style="color:#000000;fill:#9b9b9b;fill-opacity:0.54970759;fill-rule:nonzero;stroke:none;stroke-width:1.0000000;stroke-linecap:round;stroke-linejoin:round;marker:none;marker-start:none;marker-mid:none;marker-end:none;stroke-miterlimit:4.0000000;stroke-dashoffset:0.0000000;stroke-opacity:0.081871338;visibility:visible;display:block;overflow:visible"
         id="rect15740"
         width="10.253701"
         height="0.50248128"
         x="27.634363"
         y="40.433720"
         rx="0.16054952"
         ry="0.071082003" />
      <rect
         style="color:#000000;fill:#9b9b9b;fill-opacity:0.54970759;fill-rule:nonzero;stroke:none;stroke-width:1.0000000;stroke-linecap:round;stroke-linejoin:round;marker:none;marker-start:none;marker-mid:none;marker-end:none;stroke-miterlimit:4.0000000;stroke-dashoffset:0.0000000;stroke-opacity:0.081871338;visibility:visible;display:block;overflow:visible"
         id="rect15742"
         width="10.253701"
         height="0.50248128"
         x="27.634363"
         y="41.438683"
         rx="0.16054952"
         ry="0.071082003" />
      <rect
         style="color:#000000;fill:#9b9b9b;fill-opacity:0.54970759;fill-rule:nonzero;stroke:none;stroke-width:1.0000000;stroke-linecap:round;stroke-linejoin:round;marker:none;marker-start:none;marker-mid:none;marker-end:none;stroke-miterlimit:4.0000000;stroke-dashoffset:0.0000000;stroke-opacity:0.081871338;visibility:visible;display:block;overflow:visible"
         id="rect15744"
         width="7.1775966"
         height="0.50248128"
         x="27.634363"
         y="42.443645"
         rx="0.11238474"
         ry="0.071082003" />
      <g
         transform="matrix(0.512685,0.000000,0.000000,0.502481,19.43141,23.85184)"
         style="opacity:0.66477275"
         id="g5376">
        <g
           id="g7654"
           transform="matrix(0.608982,0.000000,0.000000,0.606219,12.82330,10.55720)">
          <path
             id="path7644"
             d="M 5.5126950,30.000000 L 39.643234,30.000000 L 39.643234,19.627375 L 5.5126950,19.627375 L 5.5126950,30.000000 z "
             style="fill:url(#linearGradient1986);fill-opacity:1.0000000;fill-rule:nonzero;stroke:none;stroke-width:1.2166667;stroke-miterlimit:4.0000000" />
          <path
             style="fill:#729fcf;fill-opacity:1.0000000;fill-rule:nonzero;stroke:none;stroke-width:1.2166667;stroke-miterlimit:4.0000000"
             d="M 5.5126950,5.6791358 L 39.643234,5.6791358 L 39.643234,19.627375 L 5.5126950,19.627375 L 5.5126950,5.6791358 z "
             id="path16203" />
          <g
             id="g16205"
             style="fill-rule:nonzero;stroke:#000000;stroke-width:2.0024171;stroke-miterlimit:4.0000000"
             transform="matrix(1.189217,0.000000,0.000000,1.189217,-3.525355,-6.535408)">
            <g
               id="g16207">
              <path
                 style="opacity:0.049999896;fill:#e8f52f;stroke:none"
                 d="M 18.400000,15.400000 C 18.400000,17.600000 16.600000,19.500000 14.300000,19.500000 C 12.100000,19.500000 10.200000,17.700000 10.200000,15.400000 C 10.200000,13.200000 12.000000,11.300000 14.300000,11.300000 C 16.500000,11.300000 18.400000,13.100000 18.400000,15.400000 z "
                 id="path16209" />
              <path
                 style="opacity:0.20829989;fill:#ecf751;stroke:none"
                 d="M 18.000000,15.400000 C 18.000000,17.400000 16.400000,19.100000 14.300000,19.100000 C 12.300000,19.100000 10.600000,17.500000 10.600000,15.400000 C 10.600000,13.400000 12.200000,11.700000 14.300000,11.700000 C 16.300000,11.700000 18.000000,13.300000 18.000000,15.400000 L 18.000000,15.400000 z "
                 id="path16211" />
              <path
                 style="opacity:0.36669990;fill:#f0f972;stroke:none"
                 d="M 17.600000,15.400000 C 17.600000,17.200000 16.100000,18.700000 14.300000,18.700000 C 12.500000,18.700000 11.000000,17.200000 11.000000,15.400000 C 11.000000,13.600000 12.500000,12.100000 14.300000,12.100000 C 16.100000,12.100000 17.600000,13.600000 17.600000,15.400000 L 17.600000,15.400000 z "
                 id="path16213" />
              <path
                 style="opacity:0.52499998;fill:#f4fa95;stroke:none"
                 d="M 17.200000,15.400000 C 17.200000,17.000000 15.900000,18.300000 14.300000,18.300000 C 12.700000,18.300000 11.400000,17.000000 11.400000,15.400000 C 11.400000,13.800000 12.700000,12.500000 14.300000,12.500000 C 15.900000,12.500000 17.200000,13.800000 17.200000,15.400000 z "
                 id="path16215" />
              <path
                 style="opacity:0.68330002;fill:#f7fcb7;stroke:none"
                 d="M 16.800000,15.400000 C 16.800000,16.800000 15.700000,17.900000 14.300000,17.900000 C 12.900000,17.900000 11.800000,16.800000 11.800000,15.400000 C 11.800000,14.000000 12.900000,12.900000 14.300000,12.900000 C 15.700000,12.900000 16.800000,14.000000 16.800000,15.400000 L 16.800000,15.400000 z "
                 id="path16217" />
              <path
                 style="opacity:0.84170002;fill:#fbfddb;stroke:none"
                 d="M 16.400000,15.400000 C 16.400000,16.600000 15.400000,17.500000 14.300000,17.500000 C 13.200000,17.500000 12.200000,16.500000 12.200000,15.400000 C 12.200000,14.300000 13.200000,13.300000 14.300000,13.300000 C 15.400000,13.300000 16.400000,14.300000 16.400000,15.400000 z "
                 id="path16219" />
              <path
                 style="fill:#ffffff;stroke:none"
                 d="M 16.000000,15.400000 C 16.000000,16.400000 15.200000,17.200000 14.200000,17.200000 C 13.200000,17.200000 12.400000,16.400000 12.400000,15.400000 C 12.400000,14.400000 13.200000,13.600000 14.200000,13.600000 C 15.200000,13.600000 16.000000,14.400000 16.000000,15.400000 L 16.000000,15.400000 z "
                 id="path16221" />
            </g>
          </g>
          <path
             style="opacity:0.29999998;fill-rule:nonzero;stroke:none;stroke-width:1.2166667;stroke-miterlimit:4.0000000"
             d="M 25.015859,21.649044 L 33.697148,21.649044 L 35.362052,22.124732 L 32.507931,22.124732 C 32.507931,22.124732 35.362052,22.362574 36.789115,24.146401 C 38.216174,25.811305 35.124210,27.832976 35.124210,27.832976 C 35.124210,27.832976 35.124210,27.832976 35.124210,27.832976 C 35.005288,27.476210 34.291756,24.622087 32.864696,23.432870 C 31.794399,22.481496 30.605182,22.243652 30.605182,22.243652 L 25.015859,22.243652 L 25.015859,21.767966 L 25.015859,21.649044 z "
             id="path16223" />
          <path
             style="opacity:0.29999998;fill-rule:nonzero;stroke:none;stroke-width:1.2166667;stroke-miterlimit:4.0000000"
             d="M 30.724106,22.362574 L 25.729391,22.362574 L 35.005288,27.595131 L 30.724106,22.362574 L 30.724106,22.362574 z "
             id="path16225" />
          <path
             style="fill:#515151;fill-rule:nonzero;stroke:none;stroke-width:1.2166667;stroke-miterlimit:4.0000000"
             d="M 25.015859,21.767966 L 33.697148,21.767966 L 35.005288,20.935513 L 32.151167,20.935513 C 32.151167,20.935513 34.767443,20.459827 35.124210,17.486782 C 35.480973,14.513739 31.080869,11.183931 31.080869,11.183931 C 31.080869,11.183931 31.080869,11.183931 31.080869,11.302853 C 31.199790,12.016383 32.389007,17.011096 31.556557,18.913846 C 31.199790,20.578747 30.129495,20.935513 30.129495,20.935513 L 24.659094,20.935513 L 24.896938,21.767966 L 25.015859,21.767966 z "
             id="path16227" />
          <path
             style="fill:#515151;fill-rule:nonzero;stroke:none;stroke-width:1.2166667;stroke-miterlimit:4.0000000"
             d="M 30.248418,20.459827 L 25.253704,20.459827 L 31.199790,11.421773 L 30.248418,20.459827 z "
             id="path16229" />
        </g>
        <rect
           style="opacity:1.0000000;color:#000000;fill:none;fill-opacity:1.0000000;fill-rule:nonzero;stroke:#9e9e9e;stroke-width:0.99999863;stroke-linecap:butt;stroke-linejoin:miter;marker:none;marker-start:none;marker-mid:none;marker-end:none;stroke-miterlimit:4.0000000;stroke-dasharray:none;stroke-dashoffset:0.0000000;stroke-opacity:1.0000000;visibility:visible;display:inline;overflow:visible"
           id="rect8163"
           width="19.995502"
           height="13.997463"
           x="16.508501"
           y="14.485752" />
      </g>
      <rect
         ry="0.071082003"
         rx="0.16054952"
         y="28.374168"
         x="27.634363"
         height="0.50248128"
         width="10.253701"
         id="rect1768"
         style="color:#000000;fill:#9b9b9b;fill-opacity:0.54970759;fill-rule:nonzero;stroke:none;stroke-width:1.0000000;stroke-linecap:round;stroke-linejoin:round;marker:none;marker-start:none;marker-mid:none;marker-end:none;stroke-miterlimit:4.0000000;stroke-dashoffset:0.0000000;stroke-opacity:0.081871338;visibility:visible;display:block;overflow:visible" />
      <rect
         ry="0.071082003"
         rx="0.11238474"
         y="29.379131"
         x="27.634363"
         height="0.50248128"
         width="7.1775966"
         id="rect1770"
         style="color:#000000;fill:#9b9b9b;fill-opacity:0.54970759;fill-rule:nonzero;stroke:none;stroke-width:1.0000000;stroke-linecap:round;stroke-linejoin:round;marker:none;marker-start:none;marker-mid:none;marker-end:none;stroke-miterlimit:4.0000000;stroke-dashoffset:0.0000000;stroke-opacity:0.081871338;visibility:visible;display:block;overflow:visible" />
      <rect
         ry="0.071082003"
         rx="0.16054952"
         y="26.374630"
         x="25.598036"
         height="1.0694530"
         width="14.556182"
         id="rect1558"
         style="color:#000000;fill:#9b9b9b;fill-opacity:0.85430461;fill-rule:nonzero;stroke:none;stroke-width:1.0000000;stroke-linecap:round;stroke-linejoin:round;marker:none;marker-start:none;marker-mid:none;marker-end:none;stroke-miterlimit:4.0000000;stroke-dashoffset:0.0000000;stroke-opacity:0.081871338;visibility:visible;display:block;overflow:visible" />
    </g>
    <rect
       ry="0.065390892"
       rx="0.13778633"
       y="11.546424"
       x="13.843276"
       height="0.98382831"
       width="7.6616921"
       id="rect2286"
       style="color:#000000;fill:#9b9b9b;fill-opacity:0.85430461;fill-rule:nonzero;stroke:none;stroke-width:1.0000000;stroke-linecap:round;stroke-linejoin:round;marker:none;marker-start:none;marker-mid:none;marker-end:none;stroke-miterlimit:4.0000000;stroke-dashoffset:0.0000000;stroke-opacity:0.081871338;visibility:visible;display:block;overflow:visible" />
    <rect
       ry="0.065390892"
       rx="0.13778633"
       y="32.095947"
       x="13.804937"
       height="0.98382831"
       width="7.6616921"
       id="rect2288"
       style="color:#000000;fill:#9b9b9b;fill-opacity:0.85430461;fill-rule:nonzero;stroke:none;stroke-width:1.0000000;stroke-linecap:round;stroke-linejoin:round;marker:none;marker-start:none;marker-mid:none;marker-end:none;stroke-miterlimit:4.0000000;stroke-dashoffset:0.0000000;stroke-opacity:0.081871338;visibility:visible;display:block;overflow:visible" />
    <rect
       ry="0.064496294"
       rx="0.13773014"
       y="12.920459"
       x="-34.020771"
       height="0.98584306"
       width="21.504112"
       id="rect2292"
       style="color:#000000;fill:#9b9b9b;fill-opacity:0.85430461;fill-rule:nonzero;stroke:none;stroke-width:1.0000000;stroke-linecap:round;stroke-linejoin:round;marker:none;marker-start:none;marker-mid:none;marker-end:none;stroke-miterlimit:4.0000000;stroke-dashoffset:0.0000000;stroke-opacity:0.081871338;visibility:visible;display:block;overflow:visible"
       transform="matrix(-1.570975e-3,-0.999999,0.997659,-6.838396e-2,0.000000,0.000000)" />
  </g>
</svg>
