<?xml version="1.0" encoding="UTF-8" standalone="no"?>
<!-- Created with Inkscape (http://www.inkscape.org/) -->

<svg
   xmlns:dc="http://purl.org/dc/elements/1.1/"
   xmlns:cc="http://creativecommons.org/ns#"
   xmlns:rdf="http://www.w3.org/1999/02/22-rdf-syntax-ns#"
   xmlns:svg="http://www.w3.org/2000/svg"
   xmlns="http://www.w3.org/2000/svg"
   xmlns:xlink="http://www.w3.org/1999/xlink"
   xmlns:sodipodi="http://sodipodi.sourceforge.net/DTD/sodipodi-0.dtd"
   xmlns:inkscape="http://www.inkscape.org/namespaces/inkscape"
   width="48"
   height="48"
   id="svg2566"
   sodipodi:version="0.32"
   inkscape:version="0.48.5 r10040"
   version="1.0"
   sodipodi:docname="audio-volume-medium.svg">
  <defs
     id="defs2568">
    <linearGradient
       inkscape:collect="always"
       id="linearGradient3844">
      <stop
         style="stop-color:#939565;stop-opacity:1;"
         offset="0"
         id="stop3846" />
      <stop
         style="stop-color:#939565;stop-opacity:0;"
         offset="1"
         id="stop3848" />
    </linearGradient>
    <linearGradient
       inkscape:collect="always"
       id="linearGradient3510">
      <stop
         style="stop-color:#ffffff;stop-opacity:1;"
         offset="0"
         id="stop3512" />
      <stop
         style="stop-color:#ffffff;stop-opacity:0;"
         offset="1"
         id="stop3514" />
    </linearGradient>
    <linearGradient
       inkscape:collect="always"
       id="linearGradient3498">
      <stop
         style="stop-color:#3465a4;stop-opacity:1;"
         offset="0"
         id="stop3500" />
      <stop
         style="stop-color:#3465a4;stop-opacity:0;"
         offset="1"
         id="stop3502" />
    </linearGradient>
    <linearGradient
       inkscape:collect="always"
       id="linearGradient3281">
      <stop
         style="stop-color:#ffffff;stop-opacity:1;"
         offset="0"
         id="stop3283" />
      <stop
         style="stop-color:#ffffff;stop-opacity:0;"
         offset="1"
         id="stop3285" />
    </linearGradient>
    <linearGradient
       inkscape:collect="always"
       id="linearGradient4099">
      <stop
         style="stop-color:#6f726f;stop-opacity:1;"
         offset="0"
         id="stop4101" />
      <stop
         style="stop-color:#6f726f;stop-opacity:0;"
         offset="1"
         id="stop4103" />
    </linearGradient>
    <linearGradient
       id="linearGradient4068">
      <stop
         style="stop-color:#eaeae9;stop-opacity:1;"
         offset="0"
         id="stop4070" />
      <stop
         style="stop-color:#a5a7a2;stop-opacity:1;"
         offset="1"
         id="stop4072" />
    </linearGradient>
    <radialGradient
       inkscape:collect="always"
       xlink:href="#linearGradient3628"
       id="radialGradient3634"
       cx="6.8797626"
       cy="7.1986876"
       fx="6.8797626"
       fy="7.1986876"
       r="9.375"
       gradientUnits="userSpaceOnUse"
       gradientTransform="matrix(1.240749,0,0,1.157631,-1.713645,-1.134736)" />
    <linearGradient
       inkscape:collect="always"
       id="linearGradient3692">
      <stop
         style="stop-color:#2e3436;stop-opacity:1;"
         offset="0"
         id="stop3694" />
      <stop
         style="stop-color:#babdb6"
         offset="1"
         id="stop3696" />
    </linearGradient>
    <linearGradient
       inkscape:collect="always"
       xlink:href="#linearGradient3692"
       id="linearGradient3698"
       x1="-0.51990569"
       y1="-0.51990569"
       x2="-0.51990569"
       y2="19.269905"
       gradientUnits="userSpaceOnUse" />
    <linearGradient
       inkscape:collect="always"
       id="linearGradient3628">
      <stop
         style="stop-color:#e8d700;stop-opacity:1"
         offset="0"
         id="stop3630" />
      <stop
         style="stop-color:#555753"
         offset="1"
         id="stop3632" />
    </linearGradient>
    <radialGradient
       inkscape:collect="always"
       xlink:href="#linearGradient3628"
       id="radialGradient3644"
       cx="12.704856"
       cy="13.847466"
       fx="12.704856"
       fy="13.847466"
       r="9.375"
       gradientUnits="userSpaceOnUse"
       gradientTransform="matrix(0.06370852,-1.424475,1.547293,0.0692112,-9.530629,30.98681)" />
    <radialGradient
       inkscape:collect="always"
       xlink:href="#linearGradient3628"
       id="radialGradient3728"
       gradientUnits="userSpaceOnUse"
       gradientTransform="matrix(-0.310032,2.110862,-2.082775,-0.305867,17.75288,16.41459)"
       cx="-1.0016617"
       cy="0.99004257"
       fx="-1.0016617"
       fy="0.99004257"
       r="9.9205227" />
    <linearGradient
       id="linearGradient1557"
       inkscape:collect="always">
      <stop
         id="stop1559"
         offset="0"
         style="stop-color:#2e3436;stop-opacity:1;" />
      <stop
         id="stop1561"
         offset="1"
         style="stop-color:#888a85" />
    </linearGradient>
    <linearGradient
       inkscape:collect="always"
       xlink:href="#linearGradient1557"
       id="linearGradient1549"
       x1="17.0625"
       y1="34.950001"
       x2="20.3125"
       y2="5.375"
       gradientUnits="userSpaceOnUse" />
    <radialGradient
       inkscape:collect="always"
       xlink:href="#linearGradient3628"
       id="radialGradient3702"
       gradientUnits="userSpaceOnUse"
       gradientTransform="matrix(-0.127582,1.416065,-1.630141,-0.146854,17.48751,15.56121)"
       cx="-1.0016617"
       cy="0.99004257"
       fx="-1.0016617"
       fy="0.99004257"
       r="9.9205227" />
    <linearGradient
       id="linearGradient3788">
      <stop
         style="stop-color:#cccdcb;stop-opacity:1;"
         offset="0"
         id="stop3790" />
      <stop
         style="stop-color:#888a85;stop-opacity:1;"
         offset="1"
         id="stop3792" />
    </linearGradient>
    <linearGradient
       id="linearGradient3674">
      <stop
         style="stop-color:#ffffff;stop-opacity:0;"
         offset="0"
         id="stop3676" />
      <stop
         style="stop-color:#ffffff;stop-opacity:1;"
         offset="1"
         id="stop3678" />
    </linearGradient>
    <linearGradient
       id="linearGradient3657">
      <stop
         style="stop-color:#fafafa;stop-opacity:1;"
         offset="0"
         id="stop3659" />
      <stop
         style="stop-color:#bfbfbf;stop-opacity:1;"
         offset="1"
         id="stop3661" />
    </linearGradient>
    <linearGradient
       inkscape:collect="always"
       id="linearGradient3609">
      <stop
         style="stop-color:#000000;stop-opacity:1;"
         offset="0"
         id="stop3611" />
      <stop
         style="stop-color:#000000;stop-opacity:0;"
         offset="1"
         id="stop3613" />
    </linearGradient>
    <linearGradient
       inkscape:collect="always"
       xlink:href="#linearGradient3628"
       id="linearGradient4585"
       gradientUnits="userSpaceOnUse"
       gradientTransform="matrix(-0.0082865,1.7698936,-1.7698936,-0.0082865,37.935905,-84.170636)"
       x1="56.302975"
       y1="4.9369388"
       x2="56.609135"
       y2="8.6796741" />
    <linearGradient
       inkscape:collect="always"
       xlink:href="#linearGradient4608"
       id="linearGradient4641"
       x1="58.015995"
       y1="35.01503"
       x2="57.954308"
       y2="40.9986"
       gradientUnits="userSpaceOnUse"
       spreadMethod="reflect"
       gradientTransform="matrix(0.997993,0,0,1,-97.71685,-9.352993)" />
    <linearGradient
       id="linearGradient4608">
      <stop
         style="stop-color:#eeeeec"
         offset="0"
         id="stop4610" />
      <stop
         style="stop-color:#8a8c87;stop-opacity:1;"
         offset="1"
         id="stop4612" />
    </linearGradient>
    <radialGradient
       inkscape:collect="always"
       xlink:href="#linearGradient3609"
       id="radialGradient3615"
       cx="6.4081554"
       cy="17.403807"
       fx="6.4081554"
       fy="17.403807"
       r="5.524272"
       gradientTransform="matrix(1,0,0,0.416,0,10.16382)"
       gradientUnits="userSpaceOnUse" />
    <linearGradient
       inkscape:collect="always"
       xlink:href="#linearGradient3657"
       id="linearGradient3668"
       gradientUnits="userSpaceOnUse"
       x1="10.4375"
       y1="8.2899637"
       x2="10.4375"
       y2="18.984955"
       gradientTransform="translate(-64.70027,0)" />
    <radialGradient
       inkscape:collect="always"
       xlink:href="#linearGradient3628"
       id="radialGradient3680"
       cx="5.0822492"
       cy="12.516305"
       fx="5.0822492"
       fy="12.516305"
       r="2.9831069"
       gradientTransform="matrix(-0.00714355,1.5257743,-1.7689446,-0.00828207,42.128715,4.1127067)"
       gradientUnits="userSpaceOnUse" />
    <linearGradient
       inkscape:collect="always"
       xlink:href="#linearGradient3788"
       id="linearGradient3794"
       x1="8.0536165"
       y1="11.030003"
       x2="10.4375"
       y2="11.030003"
       gradientUnits="userSpaceOnUse"
       gradientTransform="translate(-64.70027,0)" />
    <linearGradient
       inkscape:collect="always"
       xlink:href="#linearGradient3628"
       id="linearGradient4095"
       gradientUnits="userSpaceOnUse"
       x1="7.5763841"
       y1="20.301662"
       x2="7.3215322"
       y2="27.345011" />
    <linearGradient
       inkscape:collect="always"
       xlink:href="#linearGradient4068"
       id="linearGradient4097"
       gradientUnits="userSpaceOnUse"
       x1="7.5763841"
       y1="20.301662"
       x2="7.3215322"
       y2="27.345011" />
    <linearGradient
       inkscape:collect="always"
       xlink:href="#linearGradient4099"
       id="linearGradient4105"
       x1="11.125889"
       y1="25.559732"
       x2="9.346509"
       y2="25.736509"
       gradientUnits="userSpaceOnUse"
       gradientTransform="matrix(-0.00606855,1.2961668,-1.2961668,-0.00606855,55.542315,-0.7211597)" />
    <linearGradient
       inkscape:collect="always"
       xlink:href="#linearGradient3281"
       id="linearGradient3287"
       x1="4.6831215"
       y1="24.665476"
       x2="8.3712559"
       y2="24.317278"
       gradientUnits="userSpaceOnUse" />
    <radialGradient
       inkscape:collect="always"
       xlink:href="#linearGradient3498"
       id="radialGradient3504"
       cx="36.82843"
       cy="24.427677"
       fx="36.82843"
       fy="24.427671"
       r="1.2404949"
       gradientTransform="matrix(13.39869,-4.118282e-6,6.831725e-6,22.22678,-456.6246,-518.5208)"
       gradientUnits="userSpaceOnUse" />
    <radialGradient
       inkscape:collect="always"
       xlink:href="#linearGradient3498"
       id="radialGradient3506"
       gradientUnits="userSpaceOnUse"
       gradientTransform="matrix(21.09444,2.34445e-15,1.470518e-12,22.22672,-740.0468,-518.5196)"
       cx="36.82843"
       cy="24.427683"
       fx="36.82843"
       fy="24.427683"
       r="1.2404949" />
    <radialGradient
       inkscape:collect="always"
       xlink:href="#linearGradient3498"
       id="radialGradient3508"
       gradientUnits="userSpaceOnUse"
       gradientTransform="matrix(13.39869,-4.118282e-6,6.831725e-6,22.22678,-456.6246,-518.5208)"
       cx="36.82843"
       cy="24.427677"
       fx="36.82843"
       fy="24.427671"
       r="1.2404949" />
    <linearGradient
       inkscape:collect="always"
       xlink:href="#linearGradient3510"
       id="linearGradient3516"
       x1="9.485774"
       y1="22.107626"
       x2="7.378232"
       y2="22.637957"
       gradientUnits="userSpaceOnUse"
       gradientTransform="matrix(-0.00468187,0.99998904,-0.99998904,-0.00468187,48.194521,4.2227367)" />
    <linearGradient
       inkscape:collect="always"
       xlink:href="#linearGradient3844"
       id="linearGradient3850"
       x1="4.7844403"
       y1="24.665476"
       x2="12.716452"
       y2="24.665476"
       gradientUnits="userSpaceOnUse" />
  </defs>
  <sodipodi:namedview
     id="base"
     pagecolor="#ffffff"
     bordercolor="#666666"
     borderopacity="0.13333333"
     inkscape:pageopacity="0.0"
     inkscape:pageshadow="2"
     inkscape:zoom="10.589122"
     inkscape:cx="20.985023"
     inkscape:cy="17.459745"
     inkscape:current-layer="layer1"
     showgrid="false"
     inkscape:grid-bbox="true"
     inkscape:document-units="px"
     inkscape:showpageshadow="false"
     inkscape:window-width="1144"
     inkscape:window-height="962"
     inkscape:window-x="359"
     inkscape:window-y="10"
     stroke="#3465a4"
     fill="#ef2929"
     inkscape:window-maximized="0" />
  <metadata
     id="metadata2571">
    <rdf:RDF>
      <cc:Work
         rdf:about="">
        <dc:format>image/svg+xml</dc:format>
        <dc:type
           rdf:resource="http://purl.org/dc/dcmitype/StillImage" />
        <dc:title>Volume - Medium</dc:title>
        <dc:creator>
          <cc:Agent>
            <dc:title>Jakub Steiner</dc:title>
          </cc:Agent>
        </dc:creator>
        <dc:contributor>
          <cc:Agent>
            <dc:title>Lapo Calamandrei</dc:title>
          </cc:Agent>
        </dc:contributor>
        <cc:license
           rdf:resource="http://creativecommons.org/licenses/by-sa/2.0/" />
        <dc:publisher>
          <cc:Agent>
            <dc:title>http://www.tango-project.org</dc:title>
          </cc:Agent>
        </dc:publisher>
        <dc:subject>
          <rdf:Bag>
            <rdf:li>volume</rdf:li>
            <rdf:li>sound</rdf:li>
            <rdf:li>level</rdf:li>
            <rdf:li>medium</rdf:li>
          </rdf:Bag>
        </dc:subject>
      </cc:Work>
      <cc:License
         rdf:about="http://creativecommons.org/licenses/by-sa/2.0/">
        <cc:permits
           rdf:resource="http://web.resource.org/cc/Reproduction" />
        <cc:permits
           rdf:resource="http://web.resource.org/cc/Distribution" />
        <cc:requires
           rdf:resource="http://web.resource.org/cc/Notice" />
        <cc:requires
           rdf:resource="http://web.resource.org/cc/Attribution" />
        <cc:permits
           rdf:resource="http://web.resource.org/cc/DerivativeWorks" />
        <cc:requires
           rdf:resource="http://web.resource.org/cc/ShareAlike" />
      </cc:License>
    </rdf:RDF>
  </metadata>
  <g
     id="layer1"
     inkscape:label="Layer 1"
     inkscape:groupmode="layer">
    <path
       sodipodi:type="arc"
       style="opacity:0.42857145;color:#000000;fill:url(#radialGradient3615);fill-opacity:1;fill-rule:nonzero;stroke:none;stroke-width:1;marker:none;visibility:visible;display:inline;overflow:visible"
       id="path3607"
       sodipodi:cx="6.4081554"
       sodipodi:cy="17.403807"
       sodipodi:rx="5.524272"
       sodipodi:ry="2.2980971"
       d="m 11.932427,17.403807 a 5.524272,2.2980971 0 1 1 -11.04854352,0 5.524272,2.2980971 0 1 1 11.04854352,0 z"
       transform="matrix(2.7760756,0.34957942,-1.1082984,1.5053965,24.880969,11.796089)" />
    <g
       id="g4090"
       transform="matrix(-0.00606855,1.2961678,-1.2961678,-0.00606855,55.538561,0.0807982)">
      <path
         transform="matrix(1.415965,0,0,1.258558,-2.667614,-6.200669)"
         d="m 12.374369,24.665476 c 0,3.514719 -1.622486,6.363961 -3.6239227,6.363961 -2.001437,0 -3.6239223,-2.849242 -3.6239223,-6.363961 0,-3.514719 1.6224853,-6.363961 3.6239223,-6.363961 2.0014367,0 3.6239227,2.849242 3.6239227,6.363961 z"
         sodipodi:ry="6.3639612"
         sodipodi:rx="3.6239223"
         sodipodi:cy="24.665476"
         sodipodi:cx="8.7504463"
         id="path4076"
         style="color:#000000;fill:url(#linearGradient4095);fill-opacity:1;fill-rule:nonzero;stroke:#5d615f;stroke-width:0.57792485;stroke-linecap:round;stroke-linejoin:round;stroke-miterlimit:4;stroke-opacity:1;stroke-dasharray:none;stroke-dashoffset:0;marker:none;visibility:visible;display:inline;overflow:visible"
         sodipodi:type="arc" />
      <path
         sodipodi:type="arc"
         style="color:#000000;fill:url(#linearGradient4097);fill-opacity:1;fill-rule:nonzero;stroke:none;stroke-width:0.86615634;marker:none;visibility:visible;display:inline;overflow:visible"
         id="path4060"
         sodipodi:cx="8.7504463"
         sodipodi:cy="24.665476"
         sodipodi:rx="3.6239223"
         sodipodi:ry="6.3639612"
         d="m 12.374369,24.665476 c 0,3.514719 -1.622486,6.363961 -3.6239227,6.363961 -2.001437,0 -3.6239223,-2.849242 -3.6239223,-6.363961 0,-3.514719 1.6224853,-6.363961 3.6239223,-6.363961 2.0014367,0 3.6239227,2.849242 3.6239227,6.363961 z"
         transform="matrix(1.154526,0,0,1.154526,-0.379902,-3.63468)" />
      <path
         transform="matrix(1.081355,0,0,1.081355,1.232653,-1.829889)"
         d="m 12.374369,24.665476 c 0,3.514719 -1.622486,6.363961 -3.6239227,6.363961 -2.001437,0 -3.6239223,-2.849242 -3.6239223,-6.363961 0,-3.514719 1.6224853,-6.363961 3.6239223,-6.363961 2.0014367,0 3.6239227,2.849242 3.6239227,6.363961 z"
         sodipodi:ry="6.3639612"
         sodipodi:rx="3.6239223"
         sodipodi:cy="24.665476"
         sodipodi:cx="8.7504463"
         id="path4058"
         style="color:#000000;fill:#93958f;fill-opacity:1;fill-rule:nonzero;stroke:none;stroke-width:0.86615634;marker:none;visibility:visible;display:inline;overflow:visible"
         sodipodi:type="arc" />
      <path
         sodipodi:type="arc"
         style="opacity:0.39560439;color:#000000;fill:url(#linearGradient3850);fill-opacity:1;fill-rule:nonzero;stroke:url(#linearGradient3287);stroke-width:0.68416733;stroke-linecap:round;stroke-linejoin:round;stroke-miterlimit:4;stroke-opacity:1;stroke-dasharray:none;stroke-dashoffset:0;marker:none;visibility:visible;display:inline;overflow:visible"
         id="path3279"
         sodipodi:cx="8.7504463"
         sodipodi:cy="24.665476"
         sodipodi:rx="3.6239223"
         sodipodi:ry="6.3639612"
         d="m 12.374369,24.665476 c 0,3.514719 -1.622486,6.363961 -3.6239227,6.363961 -2.001437,0 -3.6239223,-2.849242 -3.6239223,-6.363961 0,-3.514719 1.6224853,-6.363961 3.6239223,-6.363961 2.0014367,0 3.6239227,2.849242 3.6239227,6.363961 z"
         transform="matrix(1.1807,0,0,1.076971,-0.608944,-1.721744)" />
    </g>
    <path
       style="color:#000000;fill:url(#linearGradient4585);fill-opacity:1;fill-rule:evenodd;stroke:url(#linearGradient4105);stroke-width:1.00000024;stroke-linecap:round;stroke-linejoin:miter;stroke-miterlimit:4;stroke-opacity:1;stroke-dashoffset:0;marker:none;visibility:visible;display:inline;overflow:visible"
       d="m 29.907724,13.617904 6.090949,7.118282 -25.081496,-0.346567 5.558726,-7.178308 c 2.073993,-2.510799 11.27062,-2.926016 13.431821,0.406593 z"
       id="path4542"
       sodipodi:nodetypes="ccccc"
       inkscape:connector-curvature="0" />
    <path
       style="color:#000000;fill:url(#linearGradient3516);fill-opacity:1;fill-rule:evenodd;stroke:none;stroke-width:1;marker:none;visibility:visible;display:inline;overflow:visible"
       d="m 26.172016,11.658062 3.020002,4.06915 -3.534857,-0.268167 -0.642432,-3.966521 1.157287,0.165538 z"
       id="path4544"
       sodipodi:nodetypes="ccccc"
       inkscape:connector-curvature="0" />
    <path
       style="opacity:0.7692308;color:#000000;fill:url(#radialGradient3680);fill-opacity:1;fill-rule:nonzero;stroke:none;stroke-width:1;marker:none;visibility:visible;display:inline;overflow:visible"
       d="m 17.785268,12.283969 -3.589093,4.42405 2.430473,-0.545452 2.52367,-4.464638 -1.36505,0.58604 z"
       id="path3672"
       sodipodi:nodetypes="ccccc"
       inkscape:connector-curvature="0" />
    <g
       style="display:inline"
       id="g4006"
       transform="matrix(-0.00513551,1.096882,-1.5092545,-0.00706621,60.332241,0.0625773)">
      <path
         sodipodi:nodetypes="ccsssscscsscscsscscsssssssc"
         id="path3726"
         d="M 23.75,14 C 21.81001,14.04917 20.013366,14.683436 18.5,15.6875 18.13319,15.264088 17.60375,15 17,15 c -0.0345,0 -0.08734,8.54e-4 -0.125,0 -0.02799,-2e-4 -0.06855,-0.0026 -0.09375,0 C 15.773145,15.102481 15,15.965001 15,17 c 0,0.60375 0.264088,1.13319 0.6875,1.5 C 14.639107,20.080181 14,21.962011 14,24 c 0,2.033681 0.611921,3.921829 1.65625,5.5 C 15.243427,29.869532 15,30.401641 15,31 c 0,1.104 0.896,2.000001 2,2 0.60375,0 1.13319,-0.264089 1.5,-0.6875 C 20.080181,33.360893 21.962011,34 24,34 c 2.03799,0 3.919819,-0.639107 5.5,-1.6875 0.36681,0.423412 0.896251,0.687501 1.5,0.6875 1.103999,0 2,-0.895999 2,-2 0,-0.60375 -0.264088,-1.13319 -0.6875,-1.5 C 33.360893,27.919819 34,26.03799 34,24 34,21.962011 33.360893,20.080181 32.3125,18.5 32.735912,18.13319 33,17.60375 33,17 c 0,-1.104 -0.896001,-2 -2,-2 -0.0345,0 -0.08734,8.54e-4 -0.125,0 -0.02799,-2e-4 -0.06855,-0.0026 -0.09375,0 -0.504052,0.05124 -0.961951,0.298435 -1.28125,0.65625 -0.0067,-0.0044 -0.02455,0.0044 -0.03125,0 C 27.894622,14.620029 26.025064,14 24,14 c -0.08617,0 -0.164349,-0.0022 -0.25,0 z"
         style="color:#000000;fill:url(#radialGradient3702);fill-opacity:1;fill-rule:evenodd;stroke:url(#linearGradient1549);stroke-width:1.47668338;stroke-linecap:round;stroke-linejoin:miter;stroke-miterlimit:4;stroke-opacity:1;stroke-dasharray:none;stroke-dashoffset:0;marker:none;visibility:visible;display:inline;overflow:visible"
         inkscape:connector-curvature="0" />
      <path
         sodipodi:nodetypes="ccsssscscsscscsscscsssssssc"
         id="path3507"
         d="M 23.75,14 C 21.81001,14.04917 20.013366,14.683436 18.5,15.6875 18.13319,15.264088 17.60375,15 17,15 c -0.0345,0 -0.08734,8.54e-4 -0.125,0 -0.02799,-2e-4 -0.06855,-0.0026 -0.09375,0 C 15.773145,15.102481 15,15.965001 15,17 c 0,0.60375 0.264088,1.13319 0.6875,1.5 C 14.639107,20.080181 14,21.962011 14,24 c 0,2.033681 0.611921,3.921829 1.65625,5.5 C 15.243427,29.869532 15,30.401641 15,31 c 0,1.104 0.896,2.000001 2,2 0.60375,0 1.13319,-0.264089 1.5,-0.6875 C 20.080181,33.360893 21.962011,34 24,34 c 2.03799,0 3.919819,-0.639107 5.5,-1.6875 0.36681,0.423412 0.896251,0.687501 1.5,0.6875 1.103999,0 2,-0.895999 2,-2 0,-0.60375 -0.264088,-1.13319 -0.6875,-1.5 C 33.360893,27.919819 34,26.03799 34,24 34,21.962011 33.360893,20.080181 32.3125,18.5 32.735912,18.13319 33,17.60375 33,17 c 0,-1.104 -0.896001,-2 -2,-2 -0.0345,0 -0.08734,8.54e-4 -0.125,0 -0.02799,-2e-4 -0.06855,-0.0026 -0.09375,0 -0.504052,0.05124 -0.961951,0.298435 -1.28125,0.65625 -0.0067,-0.0044 -0.02455,0.0044 -0.03125,0 C 27.894622,14.620029 26.025064,14 24,14 c -0.08617,0 -0.164349,-0.0022 -0.25,0 z"
         style="color:#000000;fill:url(#radialGradient3728);fill-opacity:1;fill-rule:evenodd;stroke:none;stroke-width:1.09104455;marker:none;visibility:visible;display:inline;overflow:visible"
         inkscape:connector-curvature="0" />
      <path
         transform="matrix(0.846982,0,0,0.911415,16.71027,15.44956)"
         d="m 18.75,9.375 c 0,5.17767 -4.19733,9.375 -9.375,9.375 C 4.1973305,18.75 0,14.55267 0,9.375 0,4.1973305 4.1973305,0 9.375,0 14.55267,0 18.75,4.1973305 18.75,9.375 z"
         sodipodi:ry="9.375"
         sodipodi:rx="9.375"
         sodipodi:cy="9.375"
         sodipodi:cx="9.375"
         id="path3636"
         style="color:#000000;fill:url(#radialGradient3644);fill-opacity:1;fill-rule:evenodd;stroke:url(#linearGradient3698);stroke-width:0.83858526;stroke-linecap:round;stroke-linejoin:miter;stroke-miterlimit:4;stroke-opacity:1;stroke-dasharray:none;stroke-dashoffset:0;marker:none;visibility:visible;display:inline;overflow:visible"
         sodipodi:type="arc" />
      <path
         transform="matrix(0.367272,0,0,0.32,18.56254,21.125)"
         d="m 18.75,9.375 c 0,5.17767 -4.19733,9.375 -9.375,9.375 C 4.1973305,18.75 0,14.55267 0,9.375 0,4.1973305 4.1973305,0 9.375,0 14.55267,0 18.75,4.1973305 18.75,9.375 z"
         sodipodi:ry="9.375"
         sodipodi:rx="9.375"
         sodipodi:cy="9.375"
         sodipodi:cx="9.375"
         id="path3519"
         style="color:#000000;fill:url(#radialGradient3634);fill-opacity:1;fill-rule:evenodd;stroke:none;stroke-width:6.57905483;marker:none;visibility:visible;display:inline;overflow:visible"
         sodipodi:type="arc" />
      <path
         d="M 17,16.5 C 17,16.776142 16.776142,17 16.5,17 16.223858,17 16,16.776142 16,16.5 16,16.223858 16.223858,16 16.5,16 c 0.276142,0 0.5,0.223858 0.5,0.5 z"
         sodipodi:ry="0.5"
         sodipodi:rx="0.5"
         sodipodi:cy="16.5"
         sodipodi:cx="16.5"
         id="path3718"
         style="color:#000000;fill:#2e3436;fill-opacity:1;fill-rule:evenodd;stroke:none;stroke-width:1.10000002;marker:none;visibility:visible;display:inline;overflow:visible"
         sodipodi:type="arc"
         transform="matrix(1.3125,0,0,1.3125,-4.657679,-5.09375)" />
      <path
         transform="translate(15.22159,0.25)"
         d="M 17,16.5 C 17,16.776142 16.776142,17 16.5,17 16.223858,17 16,16.776142 16,16.5 16,16.223858 16.223858,16 16.5,16 c 0.276142,0 0.5,0.223858 0.5,0.5 z"
         sodipodi:ry="0.5"
         sodipodi:rx="0.5"
         sodipodi:cy="16.5"
         sodipodi:cx="16.5"
         id="path3720"
         style="color:#000000;fill:#2e3436;fill-opacity:1;fill-rule:evenodd;stroke:none;stroke-width:1.10000002;marker:none;visibility:visible;display:inline;overflow:visible"
         sodipodi:type="arc" />
      <path
         transform="translate(15.22159,14.96875)"
         d="M 17,16.5 C 17,16.776142 16.776142,17 16.5,17 16.223858,17 16,16.776142 16,16.5 16,16.223858 16.223858,16 16.5,16 c 0.276142,0 0.5,0.223858 0.5,0.5 z"
         sodipodi:ry="0.5"
         sodipodi:rx="0.5"
         sodipodi:cy="16.5"
         sodipodi:cx="16.5"
         id="path3722"
         style="color:#000000;fill:#2e3436;fill-opacity:1;fill-rule:evenodd;stroke:none;stroke-width:1.10000002;marker:none;visibility:visible;display:inline;overflow:visible"
         sodipodi:type="arc" />
      <path
         transform="matrix(1.375,0,0,1.375,-5.688929,8.8125)"
         d="M 17,16.5 C 17,16.776142 16.776142,17 16.5,17 16.223858,17 16,16.776142 16,16.5 16,16.223858 16.223858,16 16.5,16 c 0.276142,0 0.5,0.223858 0.5,0.5 z"
         sodipodi:ry="0.5"
         sodipodi:rx="0.5"
         sodipodi:cy="16.5"
         sodipodi:cx="16.5"
         id="path3724"
         style="color:#000000;fill:#2e3436;fill-opacity:1;fill-rule:evenodd;stroke:none;stroke-width:1.10000002;marker:none;visibility:visible;display:inline;overflow:visible"
         sodipodi:type="arc" />
    </g>
  </g>
</svg>
